<svg xmlns="http://www.w3.org/2000/svg" viewBox="0 0 64 64" width="64" height="64">
  <defs>
    <linearGradient id="g" x1="0" y1="0" x2="0" y2="1">
      <stop offset="0%" stop-color="#e9d08a"/>
      <stop offset="55%" stop-color="#c8a14a"/>
      <stop offset="100%" stop-color="#a9853a"/>
    </linearGradient>
  </defs>
  <rect width="64" height="64" rx="14" fill="#46091f"/>
  <path d="M32 9 l3 5 -3 0 -3 0 z M24 44 V30 C24 24 27.6 19 32 19 C36.4 19 40 24 40 30 V44 Z" fill="url(#g)"/>
  <path d="M22 44 h20 v3 h-20 z M20 47 h24 v3 h-24 z" fill="url(#g)"/>
  <path d="M32 56 c-5 0-9-2-11-5 c4 1 7 0 11-3 c4 3 7 4 11 3 c-2 3-6 5-11 5 z" fill="url(#g)" opacity="0.92"/>
</svg>
